<?xml version="1.0" standalone="no"?>
<!DOCTYPE svg PUBLIC "-//W3C//DTD SVG 20010904//EN"
 "http://www.w3.org/TR/2001/REC-SVG-20010904/DTD/svg10.dtd">
<svg version="1.0" xmlns="http://www.w3.org/2000/svg"
 width="500.000000pt" height="500.000000pt" viewBox="0 0 500.000000 500.000000"
 preserveAspectRatio="xMidYMid meet">

<g transform="translate(0.000000,500.000000) scale(0.100000,-0.100000)"
fill="#000000" stroke="none">
<path d="M2704 4769 c-3 -6 -2 -15 3 -20 5 -5 9 -1 9 11 0 23 -2 24 -12 9z"/>
<path d="M2615 4750 c-16 -6 -13 -8 13 -7 17 0 32 1 32 2 0 8 -28 11 -45 5z"/>
<path d="M2684 4736 c1 -8 5 -18 8 -22 4 -3 5 1 4 10 -1 8 -5 18 -8 22 -4 3
-5 -1 -4 -10z"/>
<path d="M2406 4725 c-11 -8 -16 -15 -10 -15 5 0 3 -4 -5 -9 -8 -5 -14 -23
-14 -40 0 -16 -4 -28 -8 -25 -4 2 -6 -5 -4 -17 5 -27 11 -33 20 -20 3 6 0 11
-7 11 -9 0 -10 3 -2 8 6 4 15 18 19 31 5 18 4 22 -6 17 -8 -4 -7 -1 2 6 9 7
19 22 21 33 2 11 10 19 17 17 7 -1 10 2 6 8 -8 12 -6 13 -29 -5z"/>
<path d="M2647 4643 c-10 -10 -8 -23 4 -23 5 0 8 4 5 9 -4 5 0 12 6 14 7 3 8
6 2 6 -6 1 -14 -2 -17 -6z"/>
<path d="M2341 4560 c1 -8 -3 -28 -9 -43 -15 -36 -15 -40 1 -32 6 4 4 0 -5 -7
-9 -8 -19 -28 -22 -44 -2 -16 -5 -29 -6 -29 -1 0 -3 -8 -5 -18 -2 -9 0 -15 5
-12 5 3 10 -1 13 -7 2 -7 10 12 17 42 7 30 17 63 22 74 7 13 7 16 -1 12 -12
-8 -11 20 1 39 4 6 2 17 -3 25 -9 13 -10 13 -8 0z"/>
<path d="M2590 4536 c0 -2 7 -7 16 -10 8 -3 12 -2 9 4 -6 10 -25 14 -25 6z"/>
<path d="M1560 4501 c0 -26 15 -35 17 -11 1 11 -2 22 -8 25 -5 4 -9 -3 -9 -14z"/>
<path d="M2567 4485 c-13 -28 -14 -35 -3 -44 10 -9 15 -8 20 5 3 9 3 21 -1 26
-4 7 -1 8 7 3 10 -6 12 -4 7 8 -3 9 -1 17 6 20 6 2 5 6 -5 9 -10 4 -20 -4 -31
-27z"/>
<path d="M3429 4499 c0 -2 -2 -11 -4 -20 -1 -9 3 -16 10 -16 7 0 12 6 11 13
-2 13 -15 31 -17 23z"/>
<path d="M3350 4432 c-16 -20 -30 -41 -29 -47 0 -5 3 -4 6 3 2 6 11 12 19 12
8 0 14 10 14 23 0 12 4 17 8 11 4 -6 13 -4 24 7 13 14 14 18 3 23 -8 3 -27
-10 -45 -32z"/>
<path d="M1620 4437 c0 -7 7 -22 15 -33 15 -18 15 -18 8 0 -4 13 -3 17 5 12
17 -10 15 2 -2 20 -18 17 -26 18 -26 1z"/>
<path d="M3420 4436 c0 -9 -5 -16 -11 -16 -5 0 -8 -4 -5 -9 3 -5 0 -11 -8 -14
-17 -7 -27 -45 -14 -54 7 -3 8 -1 4 5 -3 6 1 15 10 20 21 12 46 70 33 77 -5 4
-9 -1 -9 -9z"/>
<path d="M1595 4431 c-3 -5 -1 -12 5 -16 5 -3 10 1 10 9 0 18 -6 21 -15 7z"/>
<path d="M1594 4395 c11 -8 14 -15 8 -15 -7 0 -12 -4 -12 -10 0 -5 5 -9 11 -7
6 1 14 -4 16 -10 3 -7 0 -13 -6 -13 -6 0 -11 -5 -11 -11 0 -5 5 -7 11 -3 8 4
9 -1 4 -16 -6 -20 -5 -21 8 -9 8 8 12 19 9 24 -7 11 -8 17 -10 51 -1 13 -11
24 -24 27 -22 6 -22 6 -4 -8z"/>
<path d="M2613 4381 c-10 -16 -9 -19 5 -16 9 2 27 4 40 4 14 1 22 7 22 19 0
14 -2 15 -10 2 -6 -10 -10 -11 -10 -2 0 19 -34 14 -47 -7z"/>
<path d="M2750 4375 c7 -9 15 -13 17 -11 7 7 -7 26 -19 26 -6 0 -6 -6 2 -15z"/>
<path d="M1671 4338 c5 -10 11 -18 12 -18 2 0 3 8 3 18 0 10 -6 19 -13 19 -8
0 -9 -6 -2 -19z"/>
<path d="M2729 4353 c-1 -5 -1 -11 0 -15 0 -5 -3 -8 -9 -8 -15 0 -32 -39 -23
-55 7 -11 15 -4 35 30 20 32 23 42 11 38 -11 -4 -14 -2 -9 5 4 7 5 12 2 12 -3
0 -7 -3 -7 -7z"/>
<path d="M3261 4343 c-5 -10 -12 -17 -15 -15 -3 1 -6 -1 -5 -4 0 -4 -5 -10
-13 -15 -7 -5 -13 -13 -13 -19 0 -6 -7 -15 -15 -20 -8 -5 -10 -10 -4 -10 19 0
57 48 48 62 -6 10 -5 11 8 1 12 -11 17 -9 26 12 13 28 -2 35 -17 8z"/>
<path d="M938 4334 c-31 -16 -38 -29 -10 -20 16 6 16 5 0 -8 -10 -7 -18 -19
-18 -25 0 -16 28 11 32 30 2 8 10 19 18 26 20 17 11 15 -22 -3z"/>
<path d="M2296 4325 c-3 -9 -10 -13 -16 -10 -5 3 -10 2 -10 -4 0 -5 -3 -16 -6
-24 -3 -8 1 -17 9 -20 11 -4 13 0 10 16 -3 16 -2 18 5 9 7 -11 11 -7 15 15 6
32 2 42 -7 18z"/>
<path d="M1806 4308 c3 -4 -2 -8 -10 -8 -9 0 -16 -5 -16 -10 0 -6 13 -4 30 5
35 18 37 21 11 21 -11 0 -17 -4 -15 -8z"/>
<path d="M3332 4315 c4 -4 -1 -15 -12 -24 -10 -9 -21 -26 -24 -37 -5 -17 -2
-23 18 -26 14 -3 23 -1 20 3 -3 5 -13 9 -22 9 -13 0 -12 4 7 19 27 21 35 47
18 58 -7 3 -9 3 -5 -2z m3 -35 c-3 -5 -12 -10 -18 -10 -7 0 -6 4 3 10 19 12
23 12 15 0z"/>
<path d="M4040 4300 c0 -5 5 -10 11 -10 5 0 7 5 4 10 -3 6 -8 10 -11 10 -2 0
-4 -4 -4 -10z"/>
<path d="M1700 4280 c6 -11 15 -18 20 -15 6 3 7 -1 4 -9 -4 -11 0 -13 15 -9
18 4 18 7 6 20 -8 8 -15 19 -15 24 0 5 -9 9 -20 9 -18 0 -19 -3 -10 -20z"/>
<path d="M3973 4262 c3 -4 -1 -13 -9 -20 -9 -8 -14 -9 -14 -2 0 7 -6 5 -15 -4
-14 -14 -20 -36 -10 -36 3 0 13 7 22 15 10 8 27 21 37 28 17 13 17 14 2 20 -9
4 -15 3 -13 -1z"/>
<path d="M867 4239 c7 -7 15 -10 18 -7 3 3 -2 9 -12 12 -14 6 -15 5 -6 -5z"/>
<path d="M1643 4243 c4 -3 1 -13 -6 -21 -10 -13 -9 -14 1 -8 10 6 11 1 6 -20
-5 -21 -4 -25 6 -19 10 6 12 4 7 -8 -4 -11 -2 -14 7 -11 10 4 11 15 3 49 -6
25 -15 45 -20 45 -6 0 -7 -3 -4 -7z"/>
<path d="M3135 4230 c-33 -37 -8 -41 30 -6 25 23 26 25 5 23 -11 -1 -27 -9
-35 -17z m25 6 c0 -2 -8 -10 -17 -17 -16 -13 -17 -12 -4 4 13 16 21 21 21 13z"/>
<path d="M991 4212 c10 -29 36 -40 36 -15 0 8 -6 12 -12 9 -6 -2 -12 2 -12 10
0 7 5 10 10 7 6 -3 7 -1 3 5 -4 7 -13 12 -21 12 -11 0 -12 -6 -4 -28z"/>
<path d="M843 4224 c-17 -7 -57 -74 -49 -81 10 -10 56 39 56 59 0 12 4 16 12
12 7 -4 8 -3 4 4 -4 7 -8 12 -9 11 -1 0 -7 -3 -14 -5z"/>
<path d="M1856 4221 c-4 -5 -1 -32 6 -60 9 -40 14 -48 25 -40 7 6 10 16 6 22
-4 6 -7 22 -8 35 0 13 -7 27 -14 31 -11 7 -11 10 0 14 9 3 10 6 2 6 -6 1 -14
-3 -17 -8z"/>
<path d="M4176 4211 c-4 -5 -2 -12 3 -15 5 -4 12 -2 15 3 4 5 2 12 -3 15 -5 4
-12 2 -15 -3z"/>
<path d="M2390 4203 c0 -5 -15 -8 -32 -6 -31 4 -32 3 -14 -11 11 -9 23 -16 27
-16 11 0 32 30 25 37 -3 3 -6 2 -6 -4z"/>
<path d="M2641 4199 c-1 -9 -8 -19 -16 -23 -9 -3 -15 -18 -15 -35 0 -16 -5
-32 -10 -34 -6 -3 -5 -4 2 -3 7 1 20 16 28 32 8 16 18 31 21 34 4 3 3 14 -2
25 -6 15 -8 16 -8 4z"/>
<path d="M2230 4169 c0 -14 7 -19 25 -19 15 0 25 6 25 14 0 7 -11 16 -25 18
-19 4 -25 1 -25 -13z"/>
<path d="M3367 4170 c-14 -14 -15 -20 -6 -26 8 -5 10 -3 4 6 -6 10 -4 12 8 7
19 -7 29 4 19 20 -5 6 -13 4 -25 -7z"/>
<path d="M3867 4176 c-8 -8 -18 -12 -22 -8 -5 4 -5 2 -2 -4 4 -7 0 -15 -9 -18
-10 -4 -13 -2 -8 7 4 6 -6 0 -22 -14 -16 -15 -37 -31 -48 -36 -16 -9 -17 -11
-2 -16 11 -4 15 -3 11 4 -4 6 0 9 11 7 10 -2 19 3 20 10 3 25 5 27 14 12 6
-10 10 -11 10 -2 0 6 6 12 13 12 7 0 19 9 27 19 7 11 17 18 21 15 4 -2 10 0
13 5 11 17 -12 22 -27 7z"/>
<path d="M3217 4149 c9 -9 6 -17 -13 -31 -26 -21 -31 -42 -12 -54 7 -4 8 -3 4
4 -4 7 -3 12 2 12 6 0 19 15 30 32 16 24 18 35 9 40 -19 12 -32 9 -20 -3z"/>
<path d="M2450 4145 c0 -5 5 -17 10 -25 5 -8 10 -10 10 -5 0 6 -5 17 -10 25
-5 8 -10 11 -10 5z"/>
<path d="M754 4111 c3 -5 0 -11 -8 -14 -18 -7 -10 -44 9 -44 10 0 11 5 4 18
-6 12 -5 20 3 25 7 5 8 3 3 -6 -5 -9 -4 -11 3 -6 17 10 15 23 -4 30 -8 3 -13
2 -10 -3z"/>
<path d="M1303 4099 c-1 -10 2 -19 8 -19 5 0 9 -5 9 -11 0 -5 -5 -7 -11 -3 -7
4 -7 -2 1 -17 18 -34 24 -38 17 -11 -3 12 -1 22 3 22 11 0 1 37 -14 49 -8 7
-12 4 -13 -10z"/>
<path d="M1780 4092 c-19 -14 -40 -33 -47 -42 -10 -12 -12 -12 -13 -1 0 8 -3
12 -6 8 -3 -3 -3 -11 1 -17 5 -8 19 -1 42 22 23 21 37 29 40 20 3 -6 9 -10 14
-7 5 4 6 -1 3 -9 -3 -9 -1 -16 6 -16 6 0 8 -5 4 -12 -4 -6 -3 -8 4 -5 12 8 10
45 -4 70 -8 14 -13 13 -44 -11z"/>
<path d="M2443 4095 c4 -8 2 -17 -3 -20 -4 -3 -7 -13 -5 -23 2 -9 4 -19 4 -21
2 -12 19 17 25 40 4 20 1 29 -10 33 -12 4 -15 2 -11 -9z"/>
<path d="M3263 4078 c-15 -16 -21 -28 -14 -28 11 0 11 -3 1 -17 -7 -10 5 0 25
22 21 22 34 33 30 25 -5 -8 -4 -11 0 -7 5 4 10 13 11 21 3 22 -24 14 -53 -16z"/>
<path d="M1057 4071 c6 -7 9 -20 6 -27 -3 -8 0 -14 7 -14 6 0 9 -4 6 -8 -2 -4
0 -14 6 -22 8 -12 9 -11 4 4 -5 14 -3 17 11 12 15 -6 16 -5 6 5 -7 7 -13 22
-13 33 0 10 -3 16 -7 13 -3 -4 -13 -1 -22 5 -13 10 -14 10 -4 -1z"/>
<path d="M3712 4069 c-13 -5 -21 -13 -17 -18 3 -5 1 -12 -5 -16 -5 -3 -10 0
-10 7 -1 8 -7 5 -16 -7 -8 -11 -18 -19 -22 -17 -4 2 -13 -6 -21 -17 -12 -18
-11 -21 3 -21 10 0 14 5 11 10 -3 6 1 10 9 10 9 0 16 5 16 11 0 5 4 8 9 5 4
-3 19 6 31 19 13 14 29 25 37 25 7 0 13 5 13 10 0 12 -7 12 -38 -1z"/>
<path d="M4216 4058 c5 -8 2 -9 -10 -5 -10 4 -27 1 -38 -7 -14 -10 -16 -15 -6
-19 18 -6 70 21 63 33 -4 6 -8 10 -11 10 -3 0 -2 -5 2 -12z"/>
<path d="M1223 4038 c-5 -7 -13 -21 -16 -31 -9 -24 21 -20 37 5 14 22 -5 46
-21 26z"/>
<path d="M761 4024 c6 -7 16 -11 21 -8 11 7 3 17 -18 20 -12 2 -13 -1 -3 -12z"/>
<path d="M1905 4009 c-1 -15 2 -26 6 -23 4 2 10 0 14 -6 3 -5 1 -10 -5 -10 -6
0 -8 -5 -4 -11 4 -8 10 -6 17 6 6 12 6 20 -3 25 -7 4 -10 15 -7 23 3 9 0 17
-6 20 -8 3 -12 -6 -12 -24z"/>
<path d="M2531 4011 c-8 -10 -12 -21 -10 -25 2 -3 -5 -12 -16 -20 -11 -9 -16
-16 -11 -16 5 0 2 -8 -5 -17 -12 -16 -12 -17 2 -6 9 7 18 11 20 8 3 -2 13 10
23 27 11 17 14 28 7 24 -6 -4 -11 -2 -11 3 0 6 6 11 14 11 8 0 18 5 22 12 4 6
3 8 -4 4 -5 -3 -12 -1 -14 4 -2 6 -9 2 -17 -9z"/>
<path d="M3120 4010 c-6 -11 -8 -20 -4 -20 3 0 1 -6 -5 -14 -7 -8 -14 -24 -16
-36 -4 -22 -4 -22 17 -4 21 19 21 19 14 -1 -5 -15 -4 -17 5 -8 13 13 3 37 -12
28 -5 -4 -9 -2 -9 3 0 6 7 13 16 16 9 4 14 13 10 22 -3 8 -2 12 4 9 6 -3 10
-2 10 4 0 20 -19 21 -30 1z"/>
<path d="M2440 4010 c0 -5 -7 -10 -16 -10 -11 0 -14 -7 -10 -30 2 -16 0 -30
-5 -30 -6 0 -7 -5 -3 -11 4 -8 9 -7 15 2 4 7 6 16 3 20 -2 4 1 11 7 15 8 4 7
9 -2 15 -11 7 -10 9 4 9 9 0 17 7 17 15 0 8 -2 15 -5 15 -3 0 -5 -4 -5 -10z"/>
<path d="M790 4010 c-7 -31 -6 -39 6 -44 20 -8 25 9 9 30 -8 10 -15 17 -15 14z"/>
<path d="M3201 3991 c-8 -5 -19 -7 -26 -5 -18 7 -38 -22 -28 -41 7 -13 14 -10
43 20 34 35 37 42 11 26z"/>
<path d="M1855 3981 c-3 -5 1 -16 9 -24 8 -8 12 -18 8 -23 -4 -5 1 -2 10 5 14
10 15 18 7 32 -11 21 -24 25 -34 10z"/>
<path d="M3583 3975 c-7 -7 -18 -15 -25 -18 -10 -4 -10 -7 1 -18 12 -12 13
-12 6 0 -6 11 -4 13 9 8 9 -4 15 -3 11 2 -3 5 0 11 6 13 7 2 10 9 8 15 -3 8
-8 7 -16 -2z"/>
<path d="M4047 3983 c-3 -5 -2 -15 2 -22 5 -7 11 -9 14 -4 3 5 2 15 -2 22 -5
7 -11 9 -14 4z"/>
<path d="M4020 3959 c0 -5 -4 -7 -10 -4 -5 3 -7 0 -4 -9 3 -8 12 -12 20 -9 16
6 19 33 4 33 -5 0 -10 -5 -10 -11z"/>
<path d="M810 3949 c-10 -6 -11 -9 -2 -9 6 0 11 -4 10 -9 -2 -5 1 -10 6 -10
12 -2 17 27 7 33 -4 3 -13 1 -21 -5z"/>
<path d="M1357 3953 c-11 -11 -8 -21 9 -27 13 -5 14 -4 6 7 -7 8 -9 17 -5 20
3 4 4 7 1 7 -2 0 -8 -3 -11 -7z"/>
<path d="M1143 3922 c-6 -11 -8 -25 -3 -32 6 -9 10 -6 15 11 4 13 13 27 19 31
7 5 6 8 -4 8 -8 0 -20 -8 -27 -18z"/>
<path d="M1350 3911 c0 -6 5 -13 11 -16 6 -4 8 -13 5 -21 -3 -8 0 -11 10 -7
20 7 17 26 -6 41 -11 7 -20 8 -20 3z"/>
<path d="M3926 3907 c3 -10 9 -15 12 -12 3 3 0 11 -7 18 -10 9 -11 8 -5 -6z"/>
<path d="M3897 3903 c-4 -3 -7 -13 -7 -22 1 -13 3 -13 11 2 11 19 8 33 -4 20z"/>
<path d="M843 3889 c9 -6 14 -16 11 -22 -4 -7 -3 -8 1 -4 17 15 12 33 -9 34
-19 2 -19 1 -3 -8z"/>
<path d="M3549 3879 c-13 -8 -9 -10 16 -9 3 1 13 -6 21 -15 15 -15 34 -12 34
5 0 5 -7 7 -15 3 -10 -3 -15 -1 -13 7 4 15 -24 21 -43 9z"/>
<path d="M2540 3851 c-94 -20 -187 -57 -258 -101 -45 -28 -48 -28 -72 -13
-229 151 -582 57 -705 -189 -19 -38 -37 -85 -40 -104 -3 -19 -7 -49 -10 -68
l-6 -35 -68 6 c-38 3 -81 3 -95 -1 -25 -6 -26 -8 -26 -87 0 -44 5 -100 11
-125 11 -42 10 -45 -15 -65 -32 -25 -33 -57 -6 -118 11 -24 20 -48 20 -55 0
-6 -22 -27 -47 -46 -94 -71 -180 -215 -214 -358 -17 -71 -20 -109 -17 -212 6
-163 29 -229 137 -394 100 -152 109 -186 88 -308 -23 -140 4 -226 93 -284 86
-57 192 -37 263 49 101 123 144 236 133 348 -3 38 -4 69 -1 69 3 0 29 -19 58
-41 74 -59 229 -132 335 -158 l90 -23 4 -136 c3 -124 5 -141 28 -182 36 -64
76 -83 167 -76 103 7 191 54 285 155 68 73 138 193 138 238 0 34 17 43 101 54
70 8 129 26 215 65 8 3 11 -23 10 -83 0 -92 11 -129 52 -166 27 -24 90 -32
136 -17 101 33 209 220 260 452 3 15 20 35 38 47 147 91 271 336 308 608 12
89 9 294 -5 339 -7 21 -5 22 57 17 51 -4 74 -1 111 15 55 25 60 45 15 68 -54
28 -143 100 -185 151 -22 26 -71 95 -108 153 -37 58 -90 139 -116 181 -89 137
-191 241 -334 340 -45 30 -57 34 -120 35 -46 0 -90 8 -130 23 -142 53 -406 67
-575 32z m360 -11 c83 -11 250 -58 250 -72 0 -4 -6 -8 -13 -8 -21 0 -104 -57
-122 -83 -22 -34 -10 -73 29 -99 17 -11 43 -36 56 -54 24 -32 60 -46 60 -23 0
5 -23 35 -52 65 -31 33 -48 58 -42 64 5 5 29 14 54 21 53 14 97 0 116 -38 6
-13 13 -20 16 -17 8 7 108 -108 102 -118 -3 -4 -1 -8 5 -8 19 0 89 -104 145
-215 68 -135 105 -271 113 -415 7 -120 17 -117 -90 -26 -53 46 -56 50 -41 67
14 16 14 18 -5 28 -11 6 -26 11 -33 11 -7 0 -21 20 -31 45 -11 25 -42 80 -70
122 -29 43 -60 95 -70 116 -10 22 -23 37 -30 34 -14 -5 -14 -4 14 -82 17 -49
20 -72 15 -125 -8 -77 -47 -172 -90 -219 -35 -37 -145 -115 -152 -108 -3 3 8
31 24 63 45 90 66 204 37 204 -14 0 -18 -9 -29 -79 -9 -51 -56 -166 -82 -198
l-22 -28 -32 30 c-17 17 -48 64 -68 104 -37 74 -37 76 -39 209 -1 74 -4 136
-6 139 -10 10 -25 -33 -32 -92 -4 -37 -1 -98 9 -160 24 -160 28 -231 14 -217
-7 7 -12 24 -13 40 0 21 -8 31 -36 45 -46 22 -75 86 -96 206 -16 93 -8 197 22
268 11 25 12 40 5 47 -23 23 -56 -62 -69 -174 -14 -125 -83 -228 -224 -334
-27 -20 -53 -36 -58 -36 -24 0 -2 187 42 363 43 170 88 262 229 460 21 31 77
79 114 99 36 20 81 24 70 6 -4 -7 -3 -8 4 -4 13 8 92 -29 92 -43 0 -5 -15 -20
-32 -33 -42 -32 -83 -103 -66 -114 7 -4 16 0 22 12 14 24 63 73 101 100 l29
20 -23 38 c-84 135 -301 201 -444 134 -32 -15 -85 -53 -117 -84 -33 -32 -61
-55 -63 -53 -45 62 -45 60 58 111 167 84 350 113 545 88z m-855 -71 c33 -6 78
-20 100 -31 49 -24 125 -96 125 -118 0 -8 -13 -31 -28 -50 -82 -101 -181 -281
-233 -425 -25 -69 -33 -82 -44 -72 -16 16 -88 10 -82 -7 2 -6 13 -11 25 -10
13 0 18 -4 15 -13 -6 -14 -158 -19 -167 -5 -2 4 7 9 22 10 50 4 49 22 0 21
-26 -1 -45 -5 -43 -9 2 -3 -15 -5 -37 -3 -47 4 -79 33 -50 45 9 4 12 7 5 7 -7
1 -24 12 -39 26 -14 13 -30 23 -34 20 -3 -2 -7 1 -8 8 -1 7 -4 26 -7 42 l-7
30 26 -31 c68 -83 206 -83 334 0 104 67 143 157 122 278 -26 145 -71 224 -148
253 -28 11 -52 23 -52 27 0 17 129 21 205 7z m680 -20 l60 -22 -40 -14 c-126
-42 -289 -262 -365 -493 -17 -52 -40 -131 -50 -176 -79 -337 -20 -677 149
-856 35 -38 77 -76 93 -85 42 -25 34 -31 -24 -21 -62 12 -115 37 -185 89 -29
21 -54 35 -57 30 -10 -15 30 -137 66 -202 20 -35 57 -84 82 -109 25 -25 46
-48 46 -51 0 -4 -21 -3 -47 2 -55 11 -152 64 -209 116 -107 97 -209 326 -249
557 -17 101 -20 321 -5 413 39 238 189 540 346 698 152 152 240 180 389 124z
m653 -36 c36 -26 98 -78 138 -115 72 -68 97 -103 274 -376 93 -143 201 -261
273 -298 68 -36 -44 -57 -136 -26 -32 10 -60 16 -62 12 -3 -5 2 -20 9 -35 46
-88 45 -304 -2 -501 -31 -129 -59 -199 -114 -285 -30 -48 -129 -159 -141 -159
-2 0 2 23 9 52 8 29 14 60 14 70 0 28 -29 21 -73 -18 -22 -20 -64 -47 -94 -60
-63 -28 -70 -29 -53 -9 26 31 80 128 80 144 0 26 12 37 75 69 107 54 192 157
210 254 12 63 -19 143 -79 207 l-53 56 -6 140 c-7 165 -32 267 -102 414 -81
168 -211 344 -306 414 -50 37 -103 41 -158 14 -29 -14 -31 -14 -20 -1 15 19
99 62 154 80 57 19 88 11 163 -43z m-1625 -18 c-84 -56 -151 -132 -191 -215
-34 -71 -36 -81 -37 -177 0 -96 -1 -100 -15 -75 -11 19 -15 57 -15 127 0 93 2
105 33 168 43 86 69 117 144 166 43 29 71 41 97 41 l36 0 -52 -35z m146 -1
c40 -24 67 -70 90 -154 26 -91 26 -152 2 -205 l-18 -40 -7 44 c-16 100 -115
229 -209 271 l-38 17 33 25 c41 31 89 57 106 58 8 0 26 -7 41 -16z m-116 -140
c40 -26 41 -44 3 -44 -12 0 -47 -12 -77 -27 -69 -36 -110 -92 -117 -163 -6
-70 -22 -44 -22 38 0 70 26 134 82 198 27 31 36 35 62 30 17 -4 48 -18 69 -32z
m122 -142 c9 -18 21 -57 27 -86 15 -68 7 -78 -82 -119 -76 -35 -161 -42 -198
-16 -23 16 -22 17 32 23 71 9 113 39 145 101 20 39 26 63 25 113 0 63 0 64 18
40 9 -12 25 -38 33 -56z m-85 36 c0 -13 -3 -40 -6 -60 l-7 -37 -40 34 c-22 19
-43 33 -46 31 -3 -2 -15 0 -25 3 -16 6 -12 11 25 29 60 30 99 29 99 0z m-139
-79 c-2 -8 -6 -40 -9 -71 -4 -54 -6 -58 -30 -58 -24 0 -25 2 -19 48 8 69 24
104 45 100 9 -2 15 -11 13 -19z m80 -30 c27 -27 21 -50 -18 -66 l-33 -13 0 34
c0 67 16 80 51 45z m-308 -36 c4 -2 7 -12 7 -21 0 -9 11 -43 24 -74 l24 -58
-37 -6 c-20 -3 -59 -12 -88 -20 -28 -8 -56 -14 -61 -14 -22 0 -44 185 -25 204
8 7 141 -2 156 -11z m100 -204 c27 -14 77 -60 77 -70 0 -5 -22 -5 -50 -2 -62
7 -68 -11 -10 -27 50 -13 53 -37 6 -46 -49 -9 -105 12 -112 42 -12 46 20 114
53 114 8 0 24 -5 36 -11z m-113 -5 c0 -3 -5 -25 -11 -49 -8 -31 -8 -49 0 -64
10 -18 5 -30 -37 -86 l-49 -64 -42 88 c-22 49 -41 94 -41 99 0 17 37 42 91 61
55 20 89 26 89 15z m1937 -122 c14 -29 23 -54 22 -56 -10 -6 -121 -37 -124
-34 -2 2 5 28 15 58 11 30 20 73 20 95 l1 40 21 -25 c11 -14 32 -49 45 -78z
m-1432 58 c3 -5 1 -10 -4 -10 -6 0 -11 5 -11 10 0 6 2 10 4 10 3 0 8 -4 11
-10z m-235 -20 c16 -9 18 -15 9 -37 -6 -15 -15 -31 -22 -35 -16 -10 -47 10
-47 32 0 47 21 61 60 40z m188 -21 c42 -14 59 -57 38 -97 -8 -16 -23 -32 -31
-36 -28 -10 -75 -7 -104 8 -24 13 -61 55 -61 70 0 3 23 -2 51 -10 28 -9 53
-13 56 -10 13 13 -9 36 -42 42 -68 12 -53 44 21 44 23 0 55 -5 72 -11z m732
-33 c0 -14 11 -56 25 -94 31 -85 31 -86 0 -78 -35 9 -149 -11 -207 -36 -57
-24 -94 -64 -77 -84 8 -10 17 -9 45 8 39 23 42 18 13 -21 -46 -63 -44 -191 4
-254 53 -69 154 -90 234 -49 125 65 134 254 16 351 l-37 30 38 -6 c29 -5 52
-20 97 -67 73 -74 87 -69 70 25 -6 34 -9 64 -8 65 1 2 24 -24 50 -57 32 -40
55 -59 70 -59 12 0 60 23 106 50 46 28 85 50 85 50 1 0 0 -18 -2 -41 -9 -88
64 -190 146 -204 53 -9 112 8 145 42 29 31 57 101 57 143 0 45 -26 118 -54
151 -15 17 -25 33 -23 35 6 6 85 -64 198 -176 117 -116 138 -158 125 -242 -14
-85 -94 -181 -193 -231 -64 -33 -240 -92 -333 -112 -103 -22 -375 -31 -481
-16 -100 15 -147 39 -228 120 -92 90 -160 258 -176 431 l-5 65 56 35 c76 47
185 155 210 207 22 48 34 55 34 19z m-1111 -35 c10 -6 2 -16 -31 -39 -68 -46
-72 -55 -52 -94 22 -45 64 -88 84 -88 15 0 43 34 112 139 16 23 18 24 18 6 0
-11 -11 -66 -23 -123 -23 -98 -23 -104 -6 -113 10 -5 27 -9 38 -9 17 0 19 -5
14 -37 -12 -91 -73 -250 -102 -268 -6 -3 -19 25 -30 63 -22 72 -69 153 -140
237 -22 27 -49 69 -58 93 -16 42 -15 45 5 85 11 23 41 68 66 100 46 57 72 69
105 48z m116 -1 c6 -10 -103 -180 -116 -180 -13 0 -60 62 -56 74 4 12 145 116
158 116 4 0 10 -4 14 -10z m93 -47 c19 -47 34 -146 30 -198 l-3 -50 -55 3
c-30 2 -56 5 -57 6 -1 1 9 49 22 106 14 58 25 117 25 133 0 16 5 27 14 27 7 0
18 -12 24 -27z m-412 -59 c4 -14 2 -30 -5 -37 -19 -19 -12 -78 16 -126 15 -25
53 -82 86 -126 63 -85 68 -94 102 -195 18 -55 25 -65 47 -68 19 -2 31 5 47 27
36 51 69 136 88 226 14 68 21 85 35 85 11 0 20 -10 24 -27 17 -81 37 -133 64
-173 42 -63 136 -157 192 -192 39 -24 55 -44 90 -111 88 -167 245 -284 398
-295 49 -3 70 -1 70 7 0 6 -35 46 -78 89 -65 64 -84 90 -109 152 -18 41 -30
76 -28 78 2 3 17 -5 33 -16 16 -12 53 -31 83 -43 50 -20 75 -22 314 -26 158
-2 293 0 345 7 93 12 223 42 284 66 21 8 41 13 43 10 12 -12 -34 -101 -78
-152 -27 -30 -46 -60 -43 -65 9 -16 82 0 149 31 33 16 61 27 63 26 6 -6 -29
-157 -54 -233 -41 -125 -79 -196 -133 -246 -43 -40 -56 -47 -90 -47 -33 0 -44
5 -58 26 -43 67 -19 234 42 291 38 35 38 34 29 57 -9 25 -22 20 -77 -30 -95
-86 -245 -143 -373 -144 l-52 0 -11 -47 c-32 -127 -125 -264 -225 -332 -62
-43 -158 -75 -200 -67 -76 14 -110 102 -105 276 2 55 0 102 -3 105 -3 4 -35
13 -69 21 -205 46 -422 173 -532 311 -50 62 -78 76 -85 41 -2 -9 11 -39 28
-67 67 -109 87 -229 55 -322 -9 -24 -34 -75 -56 -112 -74 -124 -161 -159 -246
-98 -67 49 -74 82 -58 278 10 115 0 143 -92 280 -111 165 -138 247 -136 413 1
184 63 342 178 457 35 35 68 63 74 63 6 0 14 -12 17 -26z m653 -354 c5 -36 19
-96 30 -134 11 -38 18 -72 16 -75 -3 -2 -5 1 -5 7 0 7 -6 12 -13 12 -16 0 -79
64 -72 73 3 4 2 5 -2 2 -14 -11 -83 83 -108 148 -25 62 -28 83 -29 203 -1 116
1 133 14 127 32 -14 105 -14 125 1 20 14 20 12 27 -142 4 -86 11 -186 17 -222z
m1419 331 c5 -32 -23 -54 -49 -40 -19 10 -26 49 -12 63 4 4 19 6 33 4 18 -2
26 -10 28 -27z m-753 -142 c12 -38 -35 -65 -63 -37 -19 19 -14 48 11 57 28 11
45 4 52 -20z m785 -2 c20 -11 25 -20 23 -47 -2 -52 -40 -80 -106 -80 -62 0
-96 16 -116 52 -14 24 -14 28 4 47 34 38 145 54 195 28z m-724 -160 c35 -30
27 -58 -28 -98 -53 -37 -119 -40 -169 -6 -85 57 -23 124 118 126 41 1 58 -4
79 -22z"/>
<path d="M3199 3621 c10 -7 8 -12 -10 -26 -15 -11 -18 -15 -6 -12 9 4 17 2 17
-4 0 -6 5 -7 11 -3 8 5 8 9 -1 14 -9 5 -9 9 -1 14 13 9 5 26 -12 26 -8 0 -8
-3 2 -9z"/>
<path d="M3160 2376 c0 -35 -35 -57 -68 -45 -14 6 -32 19 -39 29 -20 28 -29
25 -50 -17 -24 -50 -70 -58 -101 -19 -20 27 -42 34 -42 15 0 -24 24 -52 56
-65 29 -12 39 -12 68 0 19 8 37 24 41 36 6 20 8 20 25 5 9 -9 33 -18 53 -22
29 -4 40 -1 61 20 29 30 37 87 11 87 -9 0 -15 -9 -15 -24z"/>
<path d="M875 3852 c17 -12 36 -52 30 -62 -3 -6 1 -7 9 -4 14 6 11 34 -4 34
-4 0 -10 9 -13 20 -3 11 -11 20 -19 20 -8 0 -9 -3 -3 -8z"/>
<path d="M1375 3850 c-3 -6 1 -7 9 -4 18 7 21 14 7 14 -6 0 -13 -4 -16 -10z"/>
<path d="M3974 3827 c-4 -6 -3 -9 1 -4 5 4 19 -3 32 -15 14 -13 22 -16 18 -8
-9 25 -43 42 -51 27z"/>
<path d="M3670 3810 c0 -6 4 -9 9 -6 5 4 11 1 13 -4 2 -6 11 -12 20 -13 9 -2
23 -9 31 -15 9 -8 18 -9 21 -4 3 6 -1 15 -9 22 -8 7 -15 9 -15 4 0 -5 -4 -4
-8 3 -11 17 -62 28 -62 13z"/>
<path d="M1407 3759 c7 -7 15 -10 18 -7 3 3 -2 9 -12 12 -14 6 -15 5 -6 -5z"/>
<path d="M1225 3750 c-3 -5 -1 -10 4 -10 6 0 11 5 11 10 0 6 -2 10 -4 10 -3 0
-8 -4 -11 -10z"/>
<path d="M1413 3725 c0 -11 4 -12 14 -4 7 6 13 13 13 15 0 2 -6 4 -13 4 -8 0
-14 -7 -14 -15z"/>
<path d="M3664 3727 c-6 -7 -24 -21 -38 -31 -17 -12 -23 -23 -17 -29 6 -6 19
-2 37 12 15 12 21 21 13 21 -11 0 -11 2 1 9 8 6 18 7 22 5 4 -3 5 2 2 10 -7
19 -6 19 -20 3z"/>
<path d="M962 3720 c2 -8 8 -18 13 -22 6 -5 5 -8 -3 -8 -10 0 -9 -4 2 -16 9
-8 13 -20 10 -26 -4 -7 -2 -8 4 -4 7 4 12 2 12 -5 0 -7 3 -9 6 -6 4 4 2 13 -5
21 -6 8 -14 24 -16 37 -3 12 -9 27 -15 33 -8 8 -11 7 -8 -4z"/>
<path d="M4060 3720 c12 -8 12 -10 1 -10 -8 0 -12 -2 -10 -5 3 -2 15 -2 28 2
17 4 19 8 9 14 -7 5 -20 9 -28 9 -13 0 -13 -1 0 -10z"/>
<path d="M4006 3698 c3 -4 11 -5 19 -1 21 7 19 12 -4 10 -11 0 -18 -5 -15 -9z"/>
<path d="M1187 3693 c-4 -3 -7 -11 -7 -17 0 -6 5 -5 12 2 6 6 9 14 7 17 -3 3
-9 2 -12 -2z"/>
<path d="M3975 3691 c-6 -6 -21 -12 -35 -14 -41 -8 -82 -30 -69 -37 16 -10 80
11 72 23 -4 6 0 8 9 5 8 -4 20 2 26 13 13 21 12 25 -3 10z"/>
<path d="M1420 3680 c0 -5 5 -10 10 -10 6 0 10 5 10 10 0 6 -4 10 -10 10 -5 0
-10 -4 -10 -10z"/>
<path d="M1314 3619 c0 -11 4 -19 8 -19 4 0 8 -6 8 -14 0 -7 7 -19 15 -26 12
-10 15 -10 15 3 0 27 -12 47 -23 40 -6 -4 -8 0 -4 10 3 8 0 17 -6 20 -7 3 -13
-3 -13 -14z"/>
<path d="M3844 3632 c3 -5 0 -13 -6 -15 -9 -4 -10 -6 -1 -6 17 -1 25 16 12 25
-7 4 -9 3 -5 -4z"/>
<path d="M1033 3603 c12 -14 15 -23 7 -28 -5 -3 -7 -11 -4 -17 4 -6 10 -5 15
3 7 12 9 11 10 -1 1 -8 1 -19 0 -23 -1 -5 3 -6 9 -2 12 8 -11 55 -37 76 -17
13 -17 13 0 -8z"/>
<path d="M3775 3611 c6 -11 3 -13 -14 -8 -14 3 -21 1 -18 -6 5 -15 19 -18 37
-7 13 8 13 11 1 22 -11 11 -13 11 -6 -1z"/>
<path d="M1130 3585 c0 -8 2 -15 4 -15 2 0 6 7 10 15 3 8 1 15 -4 15 -6 0 -10
-7 -10 -15z"/>
<path d="M4503 3473 c9 -2 17 -9 17 -14 0 -5 5 -9 11 -9 8 0 8 5 -1 15 -7 8
-20 14 -29 14 -13 -1 -13 -2 2 -6z"/>
<path d="M501 3444 c0 -11 3 -14 6 -6 3 7 2 16 -1 19 -3 4 -6 -2 -5 -13z"/>
<path d="M4390 3450 c0 -7 -6 -10 -13 -7 -8 3 -20 1 -28 -4 -10 -6 -8 -9 11
-9 32 0 57 15 41 24 -6 4 -11 2 -11 -4z"/>
<path d="M4260 3419 c0 -7 -10 -9 -25 -7 -13 3 -22 1 -19 -3 8 -14 40 -10 54
6 9 10 9 15 1 15 -6 0 -11 -5 -11 -11z"/>
<path d="M4475 3420 c-4 -6 -11 -8 -16 -5 -5 4 -16 2 -25 -3 -15 -8 -15 -10 0
-15 12 -5 15 -3 10 5 -5 7 -2 9 9 5 8 -3 21 1 27 9 7 8 10 14 7 14 -3 0 -9 -5
-12 -10z"/>
<path d="M847 3403 c-7 -7 21 -43 34 -43 10 0 6 25 -5 27 -5 1 -12 6 -16 12
-3 6 -9 8 -13 4z"/>
<path d="M4315 3355 c-22 -8 -42 -15 -45 -15 -3 0 2 -5 11 -10 18 -10 79 14
79 31 0 11 4 11 -45 -6z"/>
<path d="M734 3329 c-9 -16 32 -50 51 -42 8 3 15 10 15 15 0 7 -4 7 -12 0 -13
-10 -33 2 -35 21 -2 16 -11 18 -19 6z"/>
<path d="M936 3305 c4 -8 11 -15 16 -15 6 0 5 6 -2 15 -7 8 -14 15 -16 15 -2
0 -1 -7 2 -15z"/>
<path d="M692 3266 c4 -5 2 -17 -4 -25 -7 -9 -8 -13 -4 -9 5 4 17 -2 27 -13 9
-11 19 -16 22 -12 3 5 -7 22 -21 38 -15 17 -24 26 -20 21z"/>
<path d="M950 3276 c0 -2 9 -6 20 -9 11 -3 18 -1 14 4 -5 9 -34 13 -34 5z"/>
<path d="M4290 3272 c0 -6 4 -12 8 -12 5 0 14 -11 20 -25 6 -14 17 -25 24 -24
10 0 10 2 0 6 -6 2 -10 8 -8 11 2 4 -7 18 -20 32 -13 13 -24 19 -24 12z"/>
<path d="M967 3249 c7 -7 15 -10 18 -7 3 3 -2 9 -12 12 -14 6 -15 5 -6 -5z"/>
<path d="M904 3219 c-7 -12 -8 -11 29 -27 26 -11 27 -10 18 7 -13 23 -38 34
-47 20z"/>
<path d="M4217 3182 c-10 -13 -8 -14 13 -7 14 5 33 9 42 9 26 0 10 11 -18 11
-14 1 -30 -6 -37 -13z"/>
<path d="M1085 3150 c-4 -6 -4 -14 -1 -17 3 -4 6 0 6 8 0 12 2 12 10 -1 5 -8
12 -12 15 -9 3 4 -1 12 -9 18 -10 9 -16 9 -21 1z"/>
<path d="M810 3126 c0 -2 7 -7 16 -10 8 -3 12 -2 9 4 -6 10 -25 14 -25 6z"/>
<path d="M822 3096 c16 -19 38 -15 38 7 0 8 -4 7 -9 -2 -8 -13 -12 -13 -28 -1
-17 13 -17 13 -1 -4z"/>
<path d="M1067 3089 c7 -7 15 -10 18 -7 3 3 -2 9 -12 12 -14 6 -15 5 -6 -5z"/>
<path d="M574 2743 c2 -10 6 -17 10 -16 15 3 16 11 2 22 -12 10 -14 9 -12 -6z"/>
<path d="M660 2710 c0 -5 13 -16 29 -25 25 -12 29 -13 27 0 -1 8 -5 17 -8 20
-10 10 -48 14 -48 5z m45 -18 c-3 -3 -11 0 -18 7 -9 10 -8 11 6 5 10 -3 15 -9
12 -12z"/>
<path d="M4260 2716 c0 -2 7 -7 16 -10 8 -3 12 -2 9 4 -6 10 -25 14 -25 6z"/>
<path d="M4308 2693 c7 -3 16 -2 19 1 4 3 -2 6 -13 5 -11 0 -14 -3 -6 -6z"/>
<path d="M596 2653 c10 -7 12 -13 6 -13 -15 0 -16 -36 -2 -45 6 -3 13 1 16 9
10 25 -4 63 -22 63 -15 0 -14 -2 2 -14z"/>
<path d="M4445 2650 c-3 -6 1 -7 9 -4 18 7 21 14 7 14 -6 0 -13 -4 -16 -10z"/>
<path d="M4212 2620 c0 -14 2 -19 5 -12 2 6 2 18 0 25 -3 6 -5 1 -5 -13z"/>
<path d="M845 2620 c-16 -7 -17 -9 -3 -9 9 -1 20 4 23 9 7 11 7 11 -20 0z"/>
<path d="M233 2565 c0 -27 2 -38 4 -22 2 15 2 37 0 50 -2 12 -4 0 -4 -28z"/>
<path d="M484 2559 c-4 -7 10 -13 19 -7 1 1 12 -4 25 -11 12 -6 22 -8 22 -4 0
13 -59 33 -66 22z"/>
<path d="M760 2507 c0 -12 17 -14 50 -8 9 2 -25 21 -37 21 -7 0 -13 -6 -13
-13z"/>
<path d="M866 2475 c7 -18 24 -20 24 -2 0 9 3 8 9 -2 6 -9 11 -10 15 -2 4 6 4
11 -1 12 -4 0 -18 2 -30 5 -17 3 -21 0 -17 -11z"/>
<path d="M4445 2460 c-6 -10 24 -22 36 -14 5 3 9 0 9 -5 0 -6 7 -11 16 -11 13
0 14 3 5 14 -13 16 -59 27 -66 16z"/>
<path d="M4750 2440 c0 -11 5 -20 10 -20 6 0 10 9 10 20 0 11 -4 20 -10 20 -5
0 -10 -9 -10 -20z"/>
<path d="M787 2403 c-11 -11 -8 -41 6 -49 6 -4 9 -4 5 1 -4 4 -4 13 2 19 10
13 -2 40 -13 29z"/>
<path d="M4640 2391 c0 -6 4 -13 10 -16 6 -3 7 1 4 9 -7 18 -14 21 -14 7z"/>
<path d="M4380 2370 c0 -11 7 -20 15 -20 17 0 18 2 9 24 -9 23 -24 20 -24 -4z"/>
<path d="M4269 2307 c4 -4 25 -10 47 -13 28 -4 35 -3 24 5 -8 5 -18 7 -22 5
-4 -3 -8 -2 -8 3 0 4 -11 8 -24 8 -14 0 -21 -4 -17 -8z"/>
<path d="M677 2294 c3 -7 12 -10 20 -7 11 4 14 2 9 -5 -5 -8 -2 -10 8 -6 9 3
16 10 16 16 0 5 -4 6 -10 3 -5 -3 -10 -2 -10 4 0 5 -9 9 -19 8 -10 0 -17 -7
-14 -13z"/>
<path d="M3852 1941 c-11 -7 -11 -9 0 -14 9 -3 15 1 15 9 0 8 -1 14 -1 14 -1
0 -7 -4 -14 -9z"/>
<path d="M3898 1913 c12 -17 18 -33 15 -37 -4 -4 -13 4 -20 16 -8 16 -12 18
-13 7 0 -8 10 -26 23 -39 12 -14 21 -27 20 -30 -1 -3 7 -7 18 -7 18 -2 17 1
-6 19 -17 13 -23 24 -16 32 5 6 10 16 11 21 1 6 4 12 7 15 4 3 3 0 0 -6 -4 -6
0 -20 8 -30 10 -13 14 -15 15 -5 0 10 3 11 14 2 10 -8 16 -9 21 -1 6 9 -1 14
-17 11 -5 0 -8 4 -8 11 0 6 -3 8 -7 5 -3 -4 -11 0 -17 9 -6 8 -18 16 -26 17
-8 2 -22 7 -29 12 -8 5 -5 -5 7 -22z"/>
<path d="M995 1891 c3 -5 1 -12 -5 -16 -5 -3 -10 -2 -10 2 0 5 -12 9 -27 10
l-28 2 25 -13 c33 -18 86 -10 69 10 -13 16 -33 19 -24 5z"/>
<path d="M824 1859 c-3 -6 -15 -8 -26 -6 -14 4 -17 2 -9 -7 10 -12 91 -10 91
4 0 4 -12 5 -27 3 -22 -4 -25 -2 -13 6 9 7 10 11 3 11 -6 0 -15 -5 -19 -11z"/>
<path d="M674 1827 c3 -19 16 -36 36 -47 15 -8 17 -7 13 10 -6 22 -52 57 -49
37z"/>
<path d="M4269 1807 c7 -10 20 -17 28 -17 8 0 12 -4 9 -8 -3 -5 1 -9 9 -9 21
0 8 15 -28 34 -30 15 -31 15 -18 0z"/>
<path d="M901 1784 c-33 -14 -34 -15 -15 -33 10 -10 22 -17 27 -14 4 2 7 -1 7
-7 0 -15 20 -34 45 -43 11 -4 -1 13 -28 39 -27 26 -42 44 -33 41 8 -3 21 0 28
7 7 7 20 11 28 9 13 -4 13 -3 0 6 -19 13 -18 13 -59 -5z"/>
<path d="M4020 1740 c24 -21 40 -26 40 -12 0 15 -24 32 -44 32 -18 0 -17 -1 4
-20z"/>
<path d="M4216 1733 c-11 -11 -6 -24 6 -17 8 5 9 2 5 -10 -4 -10 -3 -15 4 -11
5 4 16 1 24 -5 11 -10 15 -10 15 -1 0 7 6 9 13 6 17 -9 -24 24 -44 35 -9 5
-19 6 -23 3z"/>
<path d="M730 1694 c0 -9 -6 -14 -13 -11 -8 3 -14 -1 -14 -7 0 -10 9 -9 38 3
38 16 42 31 8 31 -11 0 -19 -7 -19 -16z"/>
<path d="M4335 1650 c-3 -6 1 -7 9 -4 18 7 21 14 7 14 -6 0 -13 -4 -16 -10z"/>
<path d="M4430 1646 c0 -2 8 -10 18 -17 15 -13 16 -12 3 4 -13 16 -21 21 -21
13z"/>
<path d="M4360 1628 c0 -6 3 -8 7 -5 3 4 17 -3 30 -15 25 -24 32 -9 7 16 -18
19 -44 21 -44 4z"/>
<path d="M830 1622 c0 -5 -15 -8 -32 -7 -18 2 -37 0 -43 -3 -5 -4 -19 -8 -29
-9 -28 -5 -30 -10 -6 -16 11 -3 27 1 34 9 18 17 30 19 20 2 -5 -8 -2 -9 12 -3
10 4 29 8 40 8 14 1 20 6 17 14 -6 15 -13 17 -13 5z"/>
<path d="M4490 1605 c6 -8 9 -18 7 -22 -3 -5 3 -9 13 -10 17 -2 17 0 -2 23
-23 25 -39 34 -18 9z"/>
<path d="M647 1585 c2 -6 12 -11 22 -11 10 0 18 5 18 11 0 5 -10 10 -22 10
-13 0 -21 -5 -18 -10z"/>
<path d="M480 1575 c-10 -12 -9 -16 4 -21 9 -4 20 -4 23 0 4 3 1 6 -5 6 -6 0
-9 7 -6 15 8 19 0 19 -16 0z"/>
<path d="M3556 1505 c-3 -9 1 -18 9 -21 8 -4 12 -10 9 -15 -3 -5 0 -9 5 -9 6
0 11 5 11 11 0 5 5 7 11 3 6 -3 3 5 -6 20 -20 30 -30 33 -39 11z m24 -5 c0 -5
-5 -10 -11 -10 -5 0 -7 5 -4 10 3 6 8 10 11 10 2 0 4 -4 4 -10z"/>
<path d="M3603 1452 c-9 -6 -6 -11 7 -20 10 -6 21 -8 24 -3 8 13 -18 31 -31
23z"/>
<path d="M3950 1451 c0 -5 7 -11 14 -14 10 -4 13 -1 9 9 -6 15 -23 19 -23 5z"/>
<path d="M3504 1426 c-4 -9 -1 -22 5 -30 6 -7 7 -17 3 -21 -4 -5 -1 -5 6 -1
14 9 16 52 2 61 -6 3 -13 -1 -16 -9z"/>
<path d="M3890 1419 c0 -5 5 -7 10 -4 6 3 10 8 10 11 0 2 -4 4 -10 4 -5 0 -10
-5 -10 -11z"/>
<path d="M3950 1425 c0 -18 25 -52 36 -48 21 8 -3 52 -28 53 -5 0 -8 -2 -8 -5z"/>
<path d="M3643 1393 c4 -28 54 -86 60 -70 3 7 -10 30 -29 51 -25 29 -33 33
-31 19z"/>
<path d="M3870 1389 c0 -5 4 -7 10 -4 6 3 7 -1 4 -9 -3 -9 -10 -14 -15 -11 -4
3 -13 -3 -19 -14 -17 -32 5 -33 28 -1 26 34 28 50 7 50 -8 0 -15 -5 -15 -11z"/>
<path d="M1095 1370 c-4 -6 -11 -7 -17 -4 -7 4 -8 2 -4 -5 6 -9 11 -9 22 0 14
11 18 19 10 19 -3 0 -8 -5 -11 -10z"/>
<path d="M4010 1341 c0 -6 4 -13 10 -16 6 -3 7 1 4 9 -7 18 -14 21 -14 7z"/>
<path d="M1019 1323 c-13 -16 -12 -17 4 -4 9 7 17 15 17 17 0 8 -8 3 -21 -13z"/>
<path d="M970 1320 c-13 -9 -13 -10 0 -10 12 0 13 -2 1 -9 -7 -5 -21 -8 -30
-6 -9 1 -23 -6 -33 -17 -9 -10 -18 -14 -20 -8 -1 5 -9 0 -17 -12 -13 -21 -13
-22 2 -9 10 7 17 10 17 6 0 -5 8 -1 19 9 10 9 28 18 39 21 28 5 61 24 44 25
-7 0 -10 5 -7 10 8 12 4 12 -15 0z"/>
<path d="M3556 1294 c-5 -12 -2 -15 10 -10 14 5 15 4 5 -7 -9 -11 -7 -24 8
-58 l19 -44 -3 45 c-4 77 -24 114 -39 74z"/>
<path d="M4018 1303 c7 -3 16 -2 19 1 4 3 -2 6 -13 5 -11 0 -14 -3 -6 -6z"/>
<path d="M3736 1283 c6 -4 10 -16 9 -25 -4 -21 30 -52 45 -43 8 5 7 11 -2 23
-11 13 -10 15 5 9 11 -4 16 -3 12 3 -4 6 -12 10 -18 9 -25 -3 -37 1 -34 12 1
6 -5 14 -13 16 -10 3 -11 2 -4 -4z"/>
<path d="M3800 1281 c0 -6 4 -12 8 -15 5 -3 9 1 9 9 0 8 -4 15 -9 15 -4 0 -8
-4 -8 -9z"/>
<path d="M4030 1255 c10 -18 16 -36 12 -40 -3 -3 2 -3 13 1 10 4 14 9 8 11 -7
3 -9 12 -6 21 4 15 3 15 -7 2 -10 -12 -11 -11 -8 11 3 18 0 25 -13 26 -17 2
-17 0 1 -32z"/>
<path d="M1213 1245 c0 -8 4 -12 9 -9 5 3 6 10 3 15 -9 13 -12 11 -12 -6z"/>
<path d="M820 1240 c0 -6 7 -10 15 -10 8 0 15 2 15 4 0 2 -7 6 -15 10 -8 3
-15 1 -15 -4z"/>
<path d="M1170 1222 c0 -7 -4 -10 -10 -7 -5 3 -10 -1 -10 -11 0 -14 3 -14 15
-4 13 11 14 10 10 -1 -7 -19 25 -38 50 -29 19 7 19 7 -3 19 -12 7 -28 9 -34 5
-6 -4 -8 -3 -5 2 3 6 2 16 -4 24 -6 11 -9 12 -9 2z"/>
<path d="M4055 1201 c-3 -6 -3 -11 2 -10 19 3 27 -2 15 -10 -11 -7 -11 -9 1
-14 17 -6 17 17 0 34 -8 8 -13 8 -18 0z"/>
<path d="M880 1172 c0 -5 11 -19 24 -31 19 -18 24 -20 22 -7 -2 17 -46 53 -46
38z"/>
<path d="M1926 1172 c-2 -4 4 -9 15 -9 11 -1 17 2 14 8 -7 11 -22 12 -29 1z"/>
<path d="M3073 1173 c-7 -3 -13 -9 -13 -15 0 -7 5 -6 14 1 11 10 15 8 19 -6 4
-16 5 -16 6 -1 1 19 -9 27 -26 21z"/>
<path d="M3040 1127 c0 -25 3 -48 8 -50 8 -6 6 82 -2 91 -3 3 -6 -15 -6 -41z"/>
<path d="M1277 1133 c3 -7 9 -11 13 -8 4 3 10 -2 13 -9 6 -14 47 -19 47 -6 0
15 -14 19 -27 8 -10 -8 -12 -8 -8 4 4 11 -2 17 -19 20 -17 4 -23 1 -19 -9z"/>
<path d="M3620 1146 c0 -2 8 -10 18 -17 15 -13 16 -12 3 4 -13 16 -21 21 -21
13z"/>
<path d="M4083 1143 c9 -2 14 -9 11 -15 -4 -7 -2 -8 5 -4 15 10 4 26 -17 25
-15 -1 -15 -2 1 -6z"/>
<path d="M1854 1118 c-12 -14 -14 -18 -4 -13 13 8 13 7 1 -8 -7 -9 -10 -17 -5
-17 5 0 2 -5 -6 -11 -13 -9 -13 -10 0 -6 19 5 54 64 42 71 -5 3 -18 -4 -28
-16z"/>
<path d="M3633 1106 c12 -9 14 -15 6 -18 -8 -3 -7 -9 5 -20 9 -9 15 -22 14
-29 -2 -6 5 -13 15 -14 13 -2 15 0 9 8 -5 7 -13 26 -16 43 -5 21 -15 34 -29
37 -20 6 -21 5 -4 -7z"/>
<path d="M1890 1078 c-22 -36 -26 -78 -8 -78 6 0 9 3 5 6 -3 4 1 13 9 21 8 9
13 22 10 30 -3 8 -1 11 4 8 6 -3 10 -3 11 2 0 4 2 16 4 26 5 28 -14 20 -35
-15z"/>
<path d="M4107 1096 c-6 -15 29 -53 39 -43 3 3 -4 10 -15 16 -12 7 -18 17 -15
26 4 8 4 15 1 15 -3 0 -7 -6 -10 -14z"/>
<path d="M3885 1084 c-12 -12 -13 -19 -4 -30 13 -16 23 -19 14 -5 -10 16 29
17 43 1 8 -9 7 -2 -3 18 -17 36 -27 39 -50 16z m35 -6 c0 -6 -3 -8 -7 -5 -3 4
-13 1 -22 -6 -14 -11 -14 -10 -2 6 15 20 31 22 31 5z"/>
<path d="M2546 1050 c-4 -25 -10 -58 -13 -75 -5 -30 -5 -30 14 -10 11 12 23
42 26 70 4 31 3 45 -2 36 -7 -11 -10 -10 -13 5 -3 11 -8 0 -12 -26z"/>
<path d="M1010 1071 c0 -6 4 -13 10 -16 6 -3 7 1 4 9 -7 18 -14 21 -14 7z"/>
<path d="M2484 1067 c-6 -7 -8 -19 -6 -26 3 -9 0 -11 -8 -6 -9 5 -11 4 -6 -3
12 -19 25 -14 41 18 12 23 12 30 3 30 -7 -1 -18 -6 -24 -13z"/>
<path d="M1810 1061 c0 -6 4 -13 10 -16 6 -3 7 1 4 9 -7 18 -14 21 -14 7z"/>
<path d="M3115 1050 c-4 -6 -1 -27 6 -48 7 -20 14 -31 16 -24 3 6 9 9 15 6 16
-10 -3 39 -21 54 -9 8 -10 11 -3 7 6 -3 12 -1 12 4 0 14 -17 14 -25 1z"/>
<path d="M968 1029 c-15 -11 -25 -25 -22 -32 2 -7 -9 -21 -26 -30 -17 -10 -28
-23 -25 -28 4 -5 1 -10 -4 -10 -6 -1 -15 -2 -21 -3 -5 0 -29 -20 -52 -42 -24
-23 -55 -53 -70 -67 -17 -16 -26 -32 -22 -42 5 -12 9 -13 20 -4 11 9 12 15 3
26 -10 11 -8 12 6 7 12 -5 29 6 60 39 23 25 41 48 39 49 -2 2 12 12 31 23 19
10 35 25 35 33 0 9 3 12 6 9 11 -11 45 35 39 51 -4 11 -2 12 7 4 14 -10 31 2
36 26 3 17 -9 14 -40 -9z"/>
<path d="M1382 1038 c-7 -7 -12 -8 -12 -4 0 5 -7 3 -15 -4 -8 -7 -15 -18 -15
-24 0 -6 5 -3 11 7 6 9 14 15 18 12 5 -2 14 2 21 10 15 18 9 20 -8 3z"/>
<path d="M1744 998 c-12 -14 -14 -19 -4 -13 8 4 5 -2 -7 -14 -13 -12 -23 -26
-23 -32 0 -6 -5 -7 -12 -3 -7 4 -8 3 -4 -4 15 -25 76 30 73 66 -2 27 0 27 -23
0z"/>
<path d="M3971 996 c7 -14 17 -22 25 -19 8 3 14 -1 14 -11 0 -9 5 -16 11 -16
5 0 7 -4 4 -10 -3 -5 -1 -10 5 -10 18 0 59 -50 54 -65 -3 -7 5 -20 18 -29 13
-9 23 -22 23 -29 0 -6 9 -11 19 -9 14 3 17 -1 13 -12 -4 -9 -3 -16 1 -17 4 0
16 -2 27 -4 16 -3 13 2 -13 26 -18 16 -29 29 -25 29 3 0 -4 11 -17 25 -12 13
-27 22 -31 19 -5 -3 -7 1 -4 8 2 7 -14 34 -38 59 -23 26 -48 55 -55 65 -7 11
-10 12 -7 4 4 -10 2 -9 -8 3 -20 25 -28 21 -16 -7z m160 -163 c13 -17 13 -17
-6 -3 -11 8 -22 16 -24 17 -2 2 0 3 6 3 6 0 17 -8 24 -17z"/>
<path d="M2470 1002 c0 -6 -7 -9 -15 -6 -16 6 -21 -11 -6 -20 11 -7 36 22 27
31 -3 3 -6 1 -6 -5z"/>
<path d="M3072 985 c0 -16 2 -22 5 -12 2 9 2 23 0 30 -3 6 -5 -1 -5 -18z"/>
<path d="M1239 978 c-13 -5 -26 -12 -29 -17 -3 -4 -19 -13 -37 -20 -30 -12
-50 -38 -38 -49 3 -3 5 0 5 7 0 7 5 9 10 6 6 -3 10 1 10 9 0 10 9 16 24 16 14
0 28 5 31 10 4 6 10 8 15 5 5 -3 21 5 36 18 29 25 18 31 -27 15z m31 -3 c0 -2
-10 -9 -22 -15 -22 -11 -22 -10 -4 4 21 17 26 19 26 11z"/>
<path d="M3310 978 c0 -6 7 -8 14 -5 10 4 13 1 9 -8 -3 -8 -8 -13 -12 -11 -3
2 -4 -17 -1 -42 4 -43 5 -44 8 -13 3 26 6 31 13 20 7 -10 9 -2 7 25 -2 28 -8
40 -20 42 -10 1 -18 -2 -18 -8z"/>
<path d="M3811 962 c-19 -27 -19 -28 0 -29 11 -1 19 5 19 13 0 8 6 14 13 14 8
0 8 3 -2 9 -11 7 -10 10 5 14 15 4 16 5 2 6 -9 0 -26 -12 -37 -27z"/>
<path d="M2420 945 c-7 -8 -9 -15 -4 -15 5 0 5 -4 -1 -8 -16 -11 -56 -102 -50
-113 4 -5 1 -9 -5 -9 -7 0 -6 -5 2 -14 11 -12 17 -6 36 37 13 29 24 62 25 75
1 12 9 27 17 32 13 9 13 10 0 10 -13 0 -13 1 0 10 8 5 10 10 4 10 -6 0 -17 -7
-24 -15z"/>
<path d="M1802 919 c-24 -38 -19 -59 13 -59 12 0 38 -2 56 -5 29 -5 30 -4 12
4 -13 6 -23 13 -23 16 0 4 5 3 12 -1 7 -4 8 -3 4 4 -4 7 -16 12 -28 12 -15 0
-18 4 -13 18 18 47 -5 55 -33 11z"/>
<path d="M3051 934 c0 -11 3 -14 6 -6 3 7 2 16 -1 19 -3 4 -6 -2 -5 -13z"/>
<path d="M4184 942 c-8 -5 -5 -13 9 -27 20 -20 20 -20 9 1 -6 12 -8 24 -5 28
9 8 1 7 -13 -2z"/>
<path d="M3245 924 c-10 -8 -22 -11 -26 -8 -5 3 -9 1 -9 -5 0 -6 -10 -19 -22
-31 -12 -11 -16 -20 -9 -20 6 0 23 11 36 24 13 13 25 22 27 21 2 -2 14 4 27
14 15 12 18 18 8 18 -8 0 -22 -6 -32 -13z"/>
<path d="M3707 906 c10 -17 16 -35 15 -39 -1 -5 2 -6 7 -3 5 4 12 -2 14 -11 4
-14 5 -13 6 5 0 12 -3 22 -8 22 -6 0 -8 8 -6 18 4 23 -5 37 -27 38 -16 2 -16
0 -1 -30z"/>
<path d="M2520 921 c0 -6 5 -11 10 -11 6 0 10 -5 10 -11 0 -5 -6 -7 -12 -3
-10 6 -10 5 -1 -8 7 -8 9 -19 5 -23 -4 -5 -1 -5 6 -1 17 10 15 41 -3 56 -10 9
-15 9 -15 1z"/>
<path d="M1068 883 c-10 -2 -18 -11 -18 -20 0 -11 -3 -13 -13 -5 -8 7 -19 7
-36 -2 -20 -11 -21 -14 -7 -19 10 -4 15 -3 11 3 -3 6 -2 10 4 10 5 0 12 -6 14
-12 4 -10 6 -10 6 0 1 7 5 11 10 8 5 -3 14 1 21 9 7 8 19 15 26 15 8 0 14 5
14 10 0 10 -3 11 -32 3z"/>
<path d="M1633 875 c-14 -10 -20 -21 -16 -32 5 -12 3 -14 -8 -8 -11 6 -12 5
-2 -5 10 -11 15 -11 27 0 9 7 13 17 9 23 -3 5 -1 7 5 3 6 -3 13 -2 17 4 3 5 1
10 -5 10 -6 0 -8 5 -5 10 9 14 3 13 -22 -5z"/>
<path d="M3071 864 c0 -11 3 -14 6 -6 3 7 2 16 -1 19 -3 4 -6 -2 -5 -13z"/>
<path d="M4200 870 c0 -5 5 -10 11 -10 5 0 7 5 4 10 -3 6 -8 10 -11 10 -2 0
-4 -4 -4 -10z"/>
<path d="M1966 858 c3 -5 10 -6 15 -3 13 9 11 12 -6 12 -8 0 -12 -4 -9 -9z"/>
<path d="M3342 842 c-7 -5 -12 -26 -11 -54 2 -40 4 -44 16 -32 18 18 14 97 -5
86z"/>
<path d="M4221 834 c0 -11 3 -14 6 -6 3 7 2 16 -1 19 -3 4 -6 -2 -5 -13z"/>
<path d="M3053 800 c0 -25 2 -35 4 -22 2 12 2 32 0 45 -2 12 -4 2 -4 -23z"/>
<path d="M2731 815 c8 -6 20 -17 27 -25 11 -13 12 -13 7 3 -4 10 -2 17 4 17 6
0 11 4 11 8 0 5 -14 8 -31 8 -24 0 -28 -2 -18 -11z"/>
<path d="M935 800 c3 -5 8 -10 11 -10 2 0 4 5 4 10 0 6 -5 10 -11 10 -5 0 -7
-4 -4 -10z"/>
<path d="M1570 806 c0 -2 7 -7 16 -10 8 -3 12 -2 9 4 -6 10 -25 14 -25 6z"/>
<path d="M1909 786 c-7 -11 -13 -28 -13 -36 0 -8 -5 -19 -11 -23 -6 -5 -4 -7
5 -4 8 2 15 8 15 14 0 5 13 21 29 35 27 23 28 25 9 30 -13 4 -24 -2 -34 -16z"/>
<path d="M2608 792 c-4 -15 0 -17 30 -14 35 5 35 5 11 18 -32 18 -36 17 -41
-4z"/>
<path d="M2500 788 c0 -9 5 -20 11 -23 17 -11 20 0 4 21 -13 17 -14 17 -15 2z"/>
<path d="M4250 791 c0 -6 4 -13 10 -16 6 -3 7 1 4 9 -7 18 -14 21 -14 7z"/>
<path d="M873 783 c-7 -2 -13 -11 -13 -19 0 -8 -6 -11 -17 -7 -10 4 -14 2 -10
-4 4 -7 0 -9 -10 -7 -10 3 -27 -2 -38 -11 -19 -14 -19 -15 -1 -8 13 4 17 3 12
-5 -5 -9 0 -9 21 0 35 15 70 38 59 38 -5 0 -3 7 4 15 13 16 13 16 -7 8z"/>
<path d="M1672 771 c28 -23 58 -28 58 -10 0 7 9 9 21 6 13 -4 18 -2 13 3 -5 5
-34 12 -64 16 l-55 7 27 -22z"/>
<path d="M895 770 c-3 -6 1 -7 9 -4 18 7 21 14 7 14 -6 0 -13 -4 -16 -10z"/>
<path d="M681 745 c-13 -14 -27 -25 -32 -25 -11 0 -6 -36 6 -47 4 -5 5 -2 1 5
-4 7 -1 15 8 18 9 3 13 10 10 15 -3 5 -1 9 4 9 5 0 14 11 20 25 14 31 13 31
-17 0z"/>
<path d="M1648 763 c7 -3 16 -2 19 1 4 3 -2 6 -13 5 -11 0 -14 -3 -6 -6z"/>
<path d="M1745 750 c3 -6 2 -10 -4 -10 -6 0 -15 -9 -20 -19 -8 -14 -7 -22 6
-32 12 -10 15 -10 9 -1 -4 6 -3 12 2 12 5 0 14 11 20 24 9 20 8 25 -4 30 -9 3
-12 1 -9 -4z"/>
<path d="M3171 730 c-22 -19 -22 -20 -3 -20 11 0 22 8 25 20 3 11 4 20 4 20
-1 -1 -13 -10 -26 -20z"/>
<path d="M2704 718 c-5 -13 -8 -25 -9 -28 0 -3 -6 -15 -13 -27 -9 -16 -9 -24
0 -29 6 -4 8 -3 5 2 -3 6 -2 16 4 24 7 13 9 13 10 0 0 -8 9 3 19 25 10 21 16
43 14 47 -9 15 -23 8 -30 -14z"/>
<path d="M4275 731 c-3 -5 -2 -12 3 -15 5 -3 9 1 9 9 0 17 -3 19 -12 6z"/>
<path d="M1860 710 c0 -6 -4 -9 -9 -6 -11 7 -33 -18 -24 -27 3 -4 -1 -7 -9 -7
-16 0 -31 -24 -21 -34 3 -3 16 2 29 11 18 12 22 19 14 28 -7 8 -7 15 -1 19 5
3 11 2 13 -3 1 -5 9 -3 15 4 8 9 9 16 3 20 -6 3 -10 1 -10 -5z"/>
<path d="M3353 695 c5 -37 18 -43 15 -7 -1 18 -6 32 -10 32 -5 0 -7 -11 -5
-25z"/>
<path d="M755 700 c-3 -6 1 -7 9 -4 18 7 21 14 7 14 -6 0 -13 -4 -16 -10z"/>
<path d="M2319 703 c-21 -5 -40 -46 -29 -64 5 -7 11 -11 14 -8 6 6 38 80 34
78 -2 -1 -10 -3 -19 -6z"/>
<path d="M3250 689 c0 -11 4 -18 10 -14 5 3 7 12 3 20 -7 21 -13 19 -13 -6z"/>
<path d="M697 693 c-10 -9 -9 -33 1 -33 5 0 15 6 23 13 8 6 12 11 10 10 -2 -2
-9 2 -16 7 -7 5 -15 7 -18 3z"/>
<path d="M3074 678 c-4 -7 -3 -8 4 -4 11 7 17 -6 13 -27 -1 -5 3 -6 9 -2 7 4
7 12 0 26 -12 22 -16 23 -26 7z"/>
<path d="M3246 647 c4 -12 12 -30 19 -40 12 -16 13 -14 12 19 -2 27 -7 38 -20
40 -14 2 -16 -2 -11 -19z m21 -19 c-3 -8 -6 -5 -6 6 -1 11 2 17 5 13 3 -3 4
-12 1 -19z"/>
<path d="M3341 613 c-1 -43 2 -53 15 -53 14 0 14 3 4 15 -10 12 -10 18 0 30 8
9 8 15 2 15 -6 0 -13 10 -15 23 -2 12 -5 -2 -6 -30z"/>
<path d="M1691 641 c-11 -7 -11 -9 0 -14 10 -4 10 -6 -2 -6 -17 -1 -51 -69
-43 -83 15 -24 46 23 59 91 4 24 5 24 -14 12z"/>
<path d="M1781 614 c0 -11 3 -14 6 -6 3 7 2 16 -1 19 -3 4 -6 -2 -5 -13z"/>
<path d="M2345 600 c-3 -5 -3 -10 2 -10 4 0 1 -5 -7 -10 -9 -6 -10 -10 -3 -10
6 0 14 4 17 9 3 4 17 6 31 3 18 -3 25 0 25 12 0 18 -54 23 -65 6z"/>
<path d="M2253 575 c0 -8 9 -15 20 -15 11 0 18 1 16 3 -2 1 -11 8 -20 15 -13
9 -16 9 -16 -3z"/>
<path d="M2641 571 c-15 -27 -1 -34 20 -9 23 25 23 28 4 28 -8 0 -19 -8 -24
-19z"/>
<path d="M1725 554 c-11 -8 -21 -19 -21 -24 -1 -6 -2 -11 -4 -12 -7 -10 -6
-37 1 -32 5 3 7 9 4 14 -3 5 -1 11 5 15 6 4 7 11 4 17 -5 8 -1 9 10 5 9 -4 15
-3 11 2 -3 6 3 14 12 20 10 6 14 10 8 10 -5 0 -19 -6 -30 -15z"/>
<path d="M3300 552 c0 -8 -5 -10 -12 -6 -10 6 -10 5 -1 -8 7 -8 9 -19 5 -23
-4 -5 -1 -5 7 0 10 6 11 2 6 -16 -7 -21 -6 -22 9 -7 14 15 14 19 1 45 -8 15
-15 22 -15 15z"/>
<path d="M3371 534 c0 -11 3 -14 6 -6 3 7 2 16 -1 19 -3 4 -6 -2 -5 -13z"/>
<path d="M2476 528 c-10 -33 -16 -100 -9 -111 12 -20 12 -36 -1 -31 -9 3 -13
-6 -13 -30 0 -19 4 -33 8 -31 4 3 5 15 2 28 -3 16 -2 18 5 8 11 -15 15 1 27
94 3 28 8 58 11 68 4 11 0 17 -11 17 -8 0 -17 -6 -19 -12z"/>
<path d="M1616 488 c-18 -25 -21 -53 -6 -43 6 4 7 12 3 18 -3 7 3 4 14 -6 16
-14 20 -15 20 -2 0 8 -4 15 -8 15 -4 0 -6 9 -4 20 5 26 0 25 -19 -2z"/>
<path d="M2607 484 c7 -3 9 -13 6 -22 -4 -14 -3 -14 5 -2 12 16 7 30 -11 29
-9 0 -9 -2 0 -5z"/>
<path d="M2585 440 c-3 -5 -3 -10 1 -10 3 0 -1 -11 -10 -25 -9 -14 -12 -25 -6
-25 5 0 10 5 10 11 0 5 5 7 12 3 7 -4 8 -3 4 5 -4 6 -3 18 4 26 7 8 7 15 1 19
-5 4 -12 2 -16 -4z"/>
<path d="M2566 355 c-9 -26 -7 -32 5 -12 6 10 9 21 6 23 -2 3 -7 -2 -11 -11z"/>
<path d="M2537 319 c7 -7 15 -10 18 -7 3 3 -2 9 -12 12 -14 6 -15 5 -6 -5z"/>
<path d="M2465 310 c-4 -6 -11 -8 -16 -4 -6 3 -8 -6 -6 -23 2 -15 -1 -35 -7
-43 -9 -13 -9 -13 5 -3 9 7 18 11 21 8 3 -3 4 7 3 22 -1 16 2 34 8 41 5 6 7
12 4 12 -3 0 -9 -5 -12 -10z"/>
<path d="M2503 254 c-10 -21 -9 -23 1 -15 7 6 15 8 19 5 3 -3 3 3 0 15 -7 26
-6 26 -20 -5z"/>
<path d="M2499 213 c-13 -16 -12 -17 4 -4 16 13 21 21 13 21 -2 0 -10 -8 -17
-17z"/>
<path d="M2456 165 c4 -8 8 -15 10 -15 2 0 4 7 4 15 0 8 -4 15 -10 15 -5 0 -7
-7 -4 -15z"/>
</g>
</svg>
